<svg width="32" height="32" viewBox="0 0 32 32" fill="none" xmlns="http://www.w3.org/2000/svg">
<rect width="32" height="32" fill="white"/>
<g clip-path="url(#clip0_3_155)">
<path d="M19 10C17.84 10 16.7266 10.54 16 11.3933C15.2733 10.54 14.16 10 13 10C10.9466 10 9.33331 11.6133 9.33331 13.6667C9.33331 16.1867 11.6 18.24 15.0333 21.36L16 22.2333L16.9666 21.3533C20.4 18.24 22.6666 16.1867 22.6666 13.6667C22.6666 11.6133 21.0533 10 19 10ZM16.0666 20.3667L16 20.4333L15.9333 20.3667C12.76 17.4933 10.6666 15.5933 10.6666 13.6667C10.6666 12.3333 11.6666 11.3333 13 11.3333C14.0266 11.3333 15.0266 11.9933 15.38 12.9067H16.6266C16.9733 11.9933 17.9733 11.3333 19 11.3333C20.3333 11.3333 21.3333 12.3333 21.3333 13.6667C21.3333 15.5933 19.24 17.4933 16.0666 20.3667Z" fill="black"/>
</g>
<defs>
<clipPath id="clip0_3_155">
<rect width="16" height="16" fill="white" transform="translate(8 8)"/>
</clipPath>
</defs>
</svg>
